
<svg xmlns="http://www.w3.org/2000/svg" xmlns:xlink="http://www.w3.org/1999/xlink" version="1.1"  width="1522" height="1023">
<defs id="dmw_defs" >
<svg id="fk_sym" viewBox="0 0 48.665 48.665" style="enable-background:new 0 0 48.665 48.665;" >
<g>
<path d="M40.332,31.592c-2.377,0-4.515,1-6.033,2.598l-17.737-8.686c0.061-0.406,0.103-0.82,0.103-1.246    c0-0.414-0.04-0.818-0.098-1.215l17.711-8.589c1.519,1.609,3.666,2.619,6.054,2.619c4.603,0,8.333-3.731,8.333-8.333    c0-4.603-3.73-8.333-8.333-8.333s-8.333,3.73-8.333,8.333c0,0.414,0.04,0.817,0.098,1.215l-17.709,8.589    c-1.519-1.609-3.666-2.619-6.054-2.619C3.73,15.925,0,19.656,0,24.258c0,4.603,3.73,8.333,8.333,8.333    c2.377,0,4.515-1,6.033-2.596l17.736,8.685c-0.062,0.406-0.104,0.82-0.104,1.245c0,4.604,3.73,8.333,8.333,8.333    s8.333-3.729,8.333-8.333C48.665,35.322,44.935,31.592,40.332,31.592z" fill="#13bf3b"/>
</g>
</svg>
<svg id="pk_sym" viewBox="0 0 480.509 480.509" style="enable-background:new 0 0 480.509 480.509;" >
<g>
<path d="M418.119,331.046c4.094,4.374,7.766,8.186,10.996,11.416c3.237,3.238,6.714,6.376,10.427,9.422   c3.71,3.042,6.427,4.568,8.135,4.568c3.241,0,9.517-4.661,18.843-13.99c9.328-9.321,13.989-15.604,13.989-18.842   c0-1.523-2.714-5.421-8.138-11.704c-5.421-6.276-12.364-13.702-20.838-22.271c-8.473-8.565-16.703-16.744-24.694-24.55   c-8.001-7.81-15.8-15.373-23.417-22.703c-7.611-7.327-11.992-11.56-13.135-12.703c-1.902-1.902-4.093-2.853-6.563-2.853   c-3.237,0-9.521,4.661-18.843,13.988c-9.328,9.322-13.989,15.605-13.989,18.843c0,1.711,1.522,4.421,4.568,8.138   c3.046,3.71,6.188,7.187,9.421,10.424c3.23,3.23,7.047,6.899,11.42,10.992c4.377,4.093,6.848,6.423,7.423,6.995l-27.408,27.404   L254.954,222.268c24.94-33.498,37.408-68.236,37.408-104.211c0-31.024-9.761-56.293-29.263-75.801   c-19.512-19.511-44.778-29.265-75.805-29.265c-30.454,0-60.244,9.042-89.363,27.119c-29.121,18.083-52.727,41.686-70.808,70.808   C9.042,140.038,0,169.828,0,200.28c0,31.029,9.753,56.286,29.265,75.803c19.511,19.517,44.777,29.27,75.801,29.27   c35.976,0,70.71-12.467,104.212-37.407l191.574,191.579c5.332,5.328,11.796,7.994,19.417,7.994c7.991,0,15.704-3.72,23.12-11.14   c7.426-7.426,11.143-15.129,11.143-23.127c0-7.617-2.666-14.092-7.994-19.417l-62.811-62.811l27.405-27.404   C411.699,324.195,414.033,326.666,418.119,331.046z M221.556,161.458c-10.656,10.657-23.601,15.987-38.828,15.987   c-7.996,0-15.896-1.812-23.7-5.43c3.617,7.808,5.426,15.706,5.426,23.7c0,15.229-5.327,28.171-15.987,38.828   c-10.66,10.655-23.606,15.986-38.831,15.986c-15.227,0-28.168-5.325-38.828-15.986c-10.657-10.657-15.987-23.599-15.987-38.828   c0-15.227,5.327-28.171,15.987-38.828C81.464,146.23,94.409,140.9,109.636,140.9c7.992,0,15.893,1.809,23.695,5.424   c-3.616-7.804-5.424-15.706-5.424-23.699c0-15.227,5.327-28.171,15.987-38.828c10.66-10.657,23.604-15.987,38.831-15.987   c15.227,0,28.171,5.327,38.828,15.987c10.657,10.66,15.987,23.601,15.987,38.828C237.539,137.852,232.209,150.797,221.556,161.458z   " fill="#ff8345"/>
</g>
</svg>
<svg id="uk_sym" viewBox="0 0 490 490" style="enable-background:new 0 0 490 490;" >
<g>
	<polygon points="236.99,11.41 0,246.348 236.99,478.678 236.99,350.609 129.864,245 236.99,139.391  " fill="#0064fb"/>
<polygon points="253.01,478.59 490,243.651 253.01,11.322 253.01,139.391 360.136,245 253.01,350.609  " fill="#0064fb"/>
</g>
</svg>
<svg id="link_sym" viewBox="0 0 1000 900" style="enable-background:new 0 0 1000 900;" >
<g>
<path fill="black" d="M660.224 422.656c6.976 16.192-0.512 35.008-16.768 42.048-16.128 6.976-34.944-0.448-41.984-16.768-8.448-19.776-20.736-37.696-36.224-53.248-64.64-64.64-177.344-64.64-241.92 0l-145.216 145.28c-66.688 66.688-66.688 175.232 0 241.984 66.688 66.688 175.104 66.752 241.92 0l92.8-92.864c12.48-12.48 32.768-12.48 45.248 0s12.48 32.768 0 45.248l-92.8 92.864c-91.648 91.648-240.832 91.52-332.416 0-91.712-91.648-91.712-240.832 0-332.48l145.216-145.28c44.352-44.416 103.424-68.864 166.272-68.864s121.792 24.448 166.208 68.864c21.248 21.312 38.016 45.952 49.664 73.216zM891.136 401.344l-145.216 145.216c-88.768 88.832-243.712 88.832-332.416 0-21.312-21.312-38.080-45.952-49.728-73.216-7.040-16.256 0.448-35.072 16.704-42.048 16.064-6.784 35.008 0.512 41.984 16.768 8.512 19.776 20.8 37.696 36.288 53.248 64.64 64.64 177.344 64.64 241.92 0l145.216-145.216c66.688-66.688 66.688-175.232 0-241.984-66.752-66.624-175.168-66.688-241.92 0l-92.8 92.864c-12.48 12.48-32.768 12.48-45.248 0s-12.48-32.768 0-45.248l92.8-92.864c45.824-45.824 105.984-68.736 166.208-68.736s120.448 22.912 166.272 68.736c91.584 91.648 91.584 240.768-0.064 332.48z" />
</g>
</svg>
<clipPath clipPathUnits="userSpaceOnUse" id="clipPath12_0_">
<rect x="0" y="0" width="141" height="89" />
</clipPath>
<clipPath clipPathUnits="userSpaceOnUse" id="clipPath15_0_">
<rect x="0" y="0" width="126" height="104" />
</clipPath>
<clipPath clipPathUnits="userSpaceOnUse" id="clipPath3_0_">
<rect x="0" y="0" width="120" height="82" />
</clipPath>
<clipPath clipPathUnits="userSpaceOnUse" id="clipPath11_0_">
<rect x="0" y="0" width="119" height="96" />
</clipPath>
<clipPath clipPathUnits="userSpaceOnUse" id="clipPath5_0_">
<rect x="0" y="0" width="98" height="85" />
</clipPath>
<clipPath clipPathUnits="userSpaceOnUse" id="clipPath2_0_">
<rect x="0" y="0" width="115" height="179" />
</clipPath>
<clipPath clipPathUnits="userSpaceOnUse" id="clipPath4_0_">
<rect x="0" y="0" width="134" height="117" />
</clipPath>
<clipPath clipPathUnits="userSpaceOnUse" id="clipPath7_0_">
<rect x="0" y="0" width="105" height="92" />
</clipPath>
<clipPath clipPathUnits="userSpaceOnUse" id="clipPath16_0_">
<rect x="0" y="0" width="112" height="184" />
</clipPath>
<clipPath clipPathUnits="userSpaceOnUse" id="clipPath6_0_">
<rect x="0" y="0" width="134" height="142" />
</clipPath>
<clipPath clipPathUnits="userSpaceOnUse" id="clipPath10_0_">
<rect x="0" y="0" width="114" height="83" />
</clipPath>
<clipPath clipPathUnits="userSpaceOnUse" id="clipPath14_0_">
<rect x="0" y="0" width="123" height="152" />
</clipPath>
<clipPath clipPathUnits="userSpaceOnUse" id="clipPath8_0_">
<rect x="0" y="0" width="129" height="83" />
</clipPath>
<clipPath clipPathUnits="userSpaceOnUse" id="clipPath1_0_">
<rect x="0" y="0" width="105" height="82" />
</clipPath>
<clipPath clipPathUnits="userSpaceOnUse" id="clipPath13_0_">
<rect x="0" y="0" width="134" height="98" />
</clipPath>
<clipPath clipPathUnits="userSpaceOnUse" id="clipPath17_0_">
<rect x="0" y="0" width="134" height="148" />
</clipPath>
<clipPath clipPathUnits="userSpaceOnUse" id="clipPath9_0_">
<rect x="0" y="0" width="150" height="67" />
</clipPath>
</defs>
<g stroke-linecap="butt" >
<path stroke="rgb(0,0,0)" fill="none" stroke-opacity="1.0"  stroke-width="1" d="M1286 74 L1398 74" />
<path stroke-dasharray="none" d="M1398.0 80.0 L1386.0 74.0 L1398.0 68.0" fill="white" stroke-width="1" stroke-opacity="1.0" stroke="rgb(0,0,0)" />
</g>
<g >
<text x="1297" y="49" fill="rgb(0,0,0)" fill-opacity="1.0" font-size="10" stroke="none">
 Un
</text>
</g>
<g >
<text x="1354" y="103" fill="rgb(0,0,0)" fill-opacity="1.0" font-size="10" stroke="none">
tiene 
</text>
<text x="1354" y="117" fill="rgb(0,0,0)" fill-opacity="1.0" font-size="10" stroke="none">
varios
</text>
</g>
<g stroke-linecap="butt" >
<path stroke="rgb(0,0,0)" fill="none" stroke-opacity="1.0"  stroke-width="1" d="M400 720 L524 571" />
<path stroke-dasharray="none" d="M528.0 574.0 L518.0 579.0 L520.0 568.0" fill="white" stroke-width="1" stroke-opacity="1.0" stroke="rgb(0,0,0)" />
</g>
<g >
<text x="411" y="732" fill="rgb(0,0,0)" fill-opacity="1.0" font-size="10" stroke="none">
 un
</text>
</g>
<g >
<text x="525" y="633" fill="rgb(0,0,0)" fill-opacity="1.0" font-size="10" stroke="none">
 varios
</text>
</g>
<g stroke-linecap="butt" >
<path stroke="rgb(0,0,0)" fill="none" stroke-opacity="1.0"  stroke-width="1" d="M1272 393 L1395 494" />
<path stroke-dasharray="none" d="M1392.0 498.0 L1387.0 488.0 L1398.0 490.0" fill="white" stroke-width="1" stroke-opacity="1.0" stroke="rgb(0,0,0)" />
</g>
<g >
<text x="1273" y="441" fill="rgb(0,0,0)" fill-opacity="1.0" font-size="10" stroke="none">
 una
</text>
</g>
<g >
<text x="1396" y="470" fill="rgb(0,0,0)" fill-opacity="1.0" font-size="10" stroke="none">
 varios
</text>
</g>
<g stroke-linecap="butt" >
<path stroke="rgb(0,0,0)" fill="none" stroke-opacity="1.0"  stroke-width="1" d="M753 402 L843 489" />
<path stroke-dasharray="none" d="M839.0 493.0 L835.0 481.0 L847.0 485.0" fill="white" stroke-width="1" stroke-opacity="1.0" stroke="rgb(0,0,0)" />
</g>
<g >
<text x="754" y="442" fill="rgb(0,0,0)" fill-opacity="1.0" font-size="10" stroke="none">
 cada
</text>
</g>
<g >
<text x="808" y="501" fill="rgb(0,0,0)" fill-opacity="1.0" font-size="10" stroke="none">
 tiene
</text>
</g>
<g stroke-linecap="butt" >
<path stroke="rgb(0,0,0)" fill="none" stroke-opacity="1.0"  stroke-width="1" d="M330 941 L330 871" />
<path stroke-dasharray="none" d="M336.0 871.0 L330.0 883.0 L324.0 871.0" fill="white" stroke-width="1" stroke-opacity="1.0" stroke="rgb(0,0,0)" />
</g>
<g >
<text x="331" y="911" fill="rgb(0,0,0)" fill-opacity="1.0" font-size="10" stroke="none">
 una
</text>
</g>
<g >
<text x="331" y="933" fill="rgb(0,0,0)" fill-opacity="1.0" font-size="10" stroke="none">
 tiene varios
</text>
</g>
<g stroke-linecap="butt" >
<path stroke="rgb(0,0,0)" fill="none" stroke-opacity="1.0"  stroke-width="1" d="M1274 360 L1386 360" />
<path stroke-dasharray="none" d="M1386.0 366.0 L1374.0 360.0 L1386.0 354.0" fill="white" stroke-width="1" stroke-opacity="1.0" stroke="rgb(0,0,0)" />
</g>
<g >
<text x="1285" y="342" fill="rgb(0,0,0)" fill-opacity="1.0" font-size="10" stroke="none">
 una
</text>
</g>
<g >
<text x="1339" y="375" fill="rgb(0,0,0)" fill-opacity="1.0" font-size="10" stroke="none">
 varios
</text>
</g>
<g stroke-linecap="butt" >
<path stroke="rgb(0,0,0)" fill="none" stroke-opacity="1.0"  stroke-width="1" d="M1214 393 L1214 732" />
<path stroke-dasharray="none" d="M1208.0 732.0 L1214.0 720.0 L1220.0 732.0" fill="white" stroke-width="1" stroke-opacity="1.0" stroke="rgb(0,0,0)" />
</g>
<g >
<text x="1215" y="464" fill="rgb(0,0,0)" fill-opacity="1.0" font-size="10" stroke="none">
 una
</text>
</g>
<g >
<text x="1215" y="699" fill="rgb(0,0,0)" fill-opacity="1.0" font-size="10" stroke="none">
 tiene varias
</text>
</g>
<g stroke-linecap="butt" >
<path stroke="rgb(0,0,0)" fill="none" stroke-opacity="1.0"  stroke-width="1" d="M475 84 L636 84" />
<path stroke-dasharray="none" d="M636.0 90.0 L624.0 84.0 L636.0 78.0" fill="white" stroke-width="1" stroke-opacity="1.0" stroke="rgb(0,0,0)" />
</g>
<g >
<text x="486" y="59" fill="rgb(0,0,0)" fill-opacity="1.0" font-size="10" stroke="none">
 un
</text>
</g>
<g >
<text x="571" y="99" fill="rgb(0,0,0)" fill-opacity="1.0" font-size="10" stroke="none">
 tiene varios
</text>
</g>
<g stroke-linecap="butt" >
<path stroke="rgb(0,0,0)" fill="none" stroke-opacity="1.0"  stroke-width="1" d="M763 360 L1155 360" />
<path stroke-dasharray="none" d="M1155.0 366.0 L1143.0 360.0 L1155.0 354.0" fill="white" stroke-width="1" stroke-opacity="1.0" stroke="rgb(0,0,0)" />
</g>
<g >
<text x="774" y="342" fill="rgb(0,0,0)" fill-opacity="1.0" font-size="10" stroke="none">
 una
</text>
</g>
<g >
<text x="1081" y="375" fill="rgb(0,0,0)" fill-opacity="1.0" font-size="10" stroke="none">
 tiene varias
</text>
</g>
<g stroke-linecap="butt" >
<path stroke="rgb(0,0,0)" fill="none" stroke-opacity="1.0"  stroke-width="1" d="M343 719 L343 392" />
<path stroke-dasharray="none" d="M349.0 392.0 L343.0 404.0 L337.0 392.0 M349.0 404.5999994277954 L337.0 404.5999994277954" fill="white" stroke-width="1" stroke-opacity="1.0" stroke="rgb(0,0,0)" />
</g>
<g >
<text x="344" y="679" fill="rgb(0,0,0)" fill-opacity="1.0" font-size="10" stroke="none">
 un
</text>
</g>
<g >
<text x="344" y="440" fill="rgb(0,0,0)" fill-opacity="1.0" font-size="10" stroke="none">
 estar en varias
</text>
</g>
<g stroke-linecap="butt" >
<path stroke="rgb(0,0,0)" fill="none" stroke-opacity="1.0"  stroke-width="1" d="M277 780 L219 780" />
<path stroke-dasharray="none" d="M219.0 774.0 L231.0 780.0 L219.0 786.0" fill="white" stroke-width="1" stroke-opacity="1.0" stroke="rgb(0,0,0)" />
</g>
<g >
<text x="245" y="756" fill="rgb(0,0,0)" fill-opacity="1.0" font-size="10" stroke="none">
 un
</text>
</g>
<g >
<text x="230" y="795" fill="rgb(0,0,0)" fill-opacity="1.0" font-size="10" stroke="none">
 tiene varias
</text>
</g>
<g stroke-linecap="butt" >
<path stroke="rgb(0,0,0)" fill="none" stroke-opacity="1.0"  stroke-width="1" d="M400 776 L1134 776" />
<path stroke-dasharray="none" d="M1134.0 782.0 L1122.0 776.0 L1134.0 770.0" fill="white" stroke-width="1" stroke-opacity="1.0" stroke="rgb(0,0,0)" />
</g>
<g >
<text x="411" y="752" fill="rgb(0,0,0)" fill-opacity="1.0" font-size="10" stroke="none">
 un
</text>
</g>
<g >
<text x="1062" y="791" fill="rgb(0,0,0)" fill-opacity="1.0" font-size="10" stroke="none">
 en muchas
</text>
</g>
<g stroke-linecap="butt" >
<path stroke="rgb(0,0,0)" fill="none" stroke-opacity="1.0"  stroke-dasharray="8,8" stroke-width="1" d="M565 906 L482 885" />
<path stroke="rgb(0,0,0)" fill="none" stroke-opacity="1.0"  stroke-width="1" d="M400 864 L482 885" />
<path stroke-dasharray="none" d="M564.0 911.0 L555.0 904.0 L566.0 901.0" fill="white" stroke-width="1" stroke-opacity="1.0" stroke="rgb(0,0,0)" />
</g>
<g >
<text x="411" y="876" fill="rgb(0,0,0)" fill-opacity="1.0" font-size="10" stroke="none">
 un
</text>
</g>
<g >
<text x="488" y="918" fill="rgb(0,0,0)" fill-opacity="1.0" font-size="10" stroke="none">
 puede tener
</text>
</g>
<g stroke-linecap="butt" >
<path stroke="rgb(0,0,0)" fill="none" stroke-opacity="1.0"  stroke-width="1" d="M1171 92 L1022 92" />
<path stroke-dasharray="none" d="M1022.0 86.0 L1034.0 92.0 L1022.0 98.0" fill="white" stroke-width="1" stroke-opacity="1.0" stroke="rgb(0,0,0)" />
</g>
<g >
<text x="1139" y="69" fill="rgb(0,0,0)" fill-opacity="1.0" font-size="10" stroke="none">
 uno
</text>
</g>
<g >
<text x="1033" y="107" fill="rgb(0,0,0)" fill-opacity="1.0" font-size="10" stroke="none">
 puede tenervarias
</text>
</g>
<g stroke-linecap="butt" >
<path stroke="rgb(0,0,0)" fill="none" stroke-opacity="1.0"  stroke-width="1" d="M637 350 L415 350" />
<path stroke-dasharray="none" d="M415.0 344.0 L427.0 350.0 L415.0 356.0" fill="white" stroke-width="1" stroke-opacity="1.0" stroke="rgb(0,0,0)" />
</g>
<g >
<text x="599" y="332" fill="rgb(0,0,0)" fill-opacity="1.0" font-size="10" stroke="none">
 una
</text>
</g>
<g >
<text x="426" y="365" fill="rgb(0,0,0)" fill-opacity="1.0" font-size="10" stroke="none">
 tiene varias
</text>
</g>
<g stroke-linecap="butt" >
<path stroke="rgb(0,0,0)" fill="none" stroke-opacity="1.0"  stroke-width="1" d="M843 537 L627 537" />
<path stroke-dasharray="none" d="M627.0 531.0 L639.0 537.0 L627.0 543.0" fill="white" stroke-width="1" stroke-opacity="1.0" stroke="rgb(0,0,0)" />
</g>
<g >
<text x="806" y="533" fill="rgb(0,0,0)" fill-opacity="1.0" font-size="10" stroke="none">
 cada
</text>
</g>
<g >
<text x="638" y="552" fill="rgb(0,0,0)" fill-opacity="1.0" font-size="10" stroke="none">
 varios
</text>
</g>
<g stroke-linecap="butt" >
<path stroke="rgb(0,0,0)" fill="none" stroke-opacity="1.0"  stroke-width="1" d="M1222 194 L1222 297" />
<path stroke-dasharray="none" d="M1216.0 297.0 L1222.0 285.0 L1228.0 297.0" fill="white" stroke-width="1" stroke-opacity="1.0" stroke="rgb(0,0,0)" />
</g>
<g >
<text x="1223" y="244" fill="rgb(0,0,0)" fill-opacity="1.0" font-size="10" stroke="none">
 un
</text>
</g>
<g >
<text x="1223" y="257" fill="rgb(0,0,0)" fill-opacity="1.0" font-size="10" stroke="none">
 puede hacer
</text>
</g>
<g stroke-linecap="butt" >
<path stroke="rgb(0,0,0)" fill="none" stroke-opacity="1.0"  stroke-width="1" d="M692 298 L692 209" />
<path stroke-dasharray="none" d="M698.0 209.0 L692.0 221.0 L686.0 209.0" fill="white" stroke-width="1" stroke-opacity="1.0" stroke="rgb(0,0,0)" />
</g>
<g >
<text x="693" y="263" fill="rgb(0,0,0)" fill-opacity="1.0" font-size="10" stroke="none">
 una
</text>
</g>
<g >
<text x="693" y="252" fill="rgb(0,0,0)" fill-opacity="1.0" font-size="10" stroke="none">
 puede tener
</text>
</g>
<g  fill="rgb(164,225,255)" stroke="rgb(0,0,255)" fill-opacity="1.0" stroke-opacity="1.0" clip-path="url(#clipPath2_0_)" transform="translate(1171,15)" >
<rect x="0" y="0" width="114" height="178" rx="20" ry="20" />
<text id="3E4C2681-72116871AF68" x="38" y="14" fill="rgb(0,0,255)" font-weight="bold"  fill-opacity="1.0" font-size="10" stroke="none">
clientes
</text>
<text x="16" y="32" fill="rgb(255,0,0)" fill-opacity="1.0" font-size="10" stroke="none">
*
</text>
<text x="2" y="32" fill="rgb(0,0,255)" fill-opacity="1.0" font-size="10" stroke="none">
P
</text>
<text x="26" y="32" fill="rgb(0,0,0)" fill-opacity="1.0" font-size="10" stroke="none">
client_id
</text>
<text x="16" y="46" fill="rgb(255,0,0)" fill-opacity="1.0" font-size="10" stroke="none">
*
</text>
<text x="26" y="46" fill="rgb(0,0,0)" fill-opacity="1.0" font-size="10" stroke="none">
national_document
</text>
<text x="16" y="60" fill="rgb(255,0,0)" fill-opacity="1.0" font-size="10" stroke="none">
*
</text>
<text x="26" y="60" fill="rgb(0,0,0)" fill-opacity="1.0" font-size="10" stroke="none">
name
</text>
<text x="16" y="74" fill="rgb(255,0,0)" fill-opacity="1.0" font-size="10" stroke="none">
*
</text>
<text x="26" y="74" fill="rgb(0,0,0)" fill-opacity="1.0" font-size="10" stroke="none">
lastname
</text>
<text x="16" y="88" fill="rgb(255,0,0)" fill-opacity="1.0" font-size="10" stroke="none">
*
</text>
<text x="26" y="88" fill="rgb(0,0,0)" fill-opacity="1.0" font-size="10" stroke="none">
phone
</text>
<text x="16" y="102" fill="rgb(255,0,0)" fill-opacity="1.0" font-size="10" stroke="none">
*
</text>
<text x="26" y="102" fill="rgb(0,0,0)" fill-opacity="1.0" font-size="10" stroke="none">
email
</text>
<text x="16" y="116" fill="rgb(255,0,0)" fill-opacity="1.0" font-size="10" stroke="none">
*
</text>
<text x="26" y="116" fill="rgb(0,0,0)" fill-opacity="1.0" font-size="10" stroke="none">
active
</text>
<text x="16" y="130" fill="rgb(255,0,0)" fill-opacity="1.0" font-size="10" stroke="none">
*
</text>
<text x="26" y="130" fill="rgb(0,0,0)" fill-opacity="1.0" font-size="10" stroke="none">
confirmed_email
</text>
<text x="16" y="144" fill="rgb(255,0,0)" fill-opacity="1.0" font-size="10" stroke="none">
*
</text>
<text x="26" y="144" fill="rgb(0,0,0)" fill-opacity="1.0" font-size="10" stroke="none">
password
</text>
<text x="16" y="158" fill="rgb(255,0,0)" fill-opacity="1.0" font-size="10" stroke="none">
*
</text>
<text x="26" y="158" fill="rgb(0,0,0)" fill-opacity="1.0" font-size="10" stroke="none">
created_at
</text>
<text x="16" y="172" fill="rgb(255,0,0)" fill-opacity="1.0" font-size="10" stroke="none">
*
</text>
<text x="26" y="172" fill="rgb(0,0,0)" fill-opacity="1.0" font-size="10" stroke="none">
updated_at
</text>
</g>
<g  fill="rgb(164,225,255)" stroke="rgb(0,0,255)" fill-opacity="1.0" stroke-opacity="1.0" clip-path="url(#clipPath5_0_)" transform="translate(924,50)" >
<rect x="0" y="0" width="97" height="84" rx="20" ry="20" />
<text id="28B6EDDF-B214A0DD6B67" x="20" y="14" fill="rgb(0,0,255)" font-weight="bold"  fill-opacity="1.0" font-size="10" stroke="none">
direcciones
</text>
<text x="16" y="32" fill="rgb(255,0,0)" fill-opacity="1.0" font-size="10" stroke="none">
*
</text>
<text x="2" y="32" fill="rgb(0,0,255)" fill-opacity="1.0" font-size="10" stroke="none">
P
</text>
<text x="26" y="32" fill="rgb(0,0,0)" fill-opacity="1.0" font-size="10" stroke="none">
id_direccion
</text>
<text x="16" y="46" fill="rgb(255,0,0)" fill-opacity="1.0" font-size="10" stroke="none">
*
</text>
<text x="26" y="46" fill="rgb(0,0,0)" fill-opacity="1.0" font-size="10" stroke="none">
address
</text>
<text x="16" y="60" fill="rgb(255,0,0)" fill-opacity="1.0" font-size="10" stroke="none">
*
</text>
<text x="26" y="60" fill="rgb(0,0,0)" fill-opacity="1.0" font-size="10" stroke="none">
created_at
</text>
<text x="16" y="74" fill="rgb(255,0,0)" fill-opacity="1.0" font-size="10" stroke="none">
*
</text>
<text x="26" y="74" fill="rgb(0,0,0)" fill-opacity="1.0" font-size="10" stroke="none">
updated_at
</text>
</g>
<g  fill="rgb(164,225,255)" stroke="rgb(0,0,255)" fill-opacity="1.0" stroke-opacity="1.0" clip-path="url(#clipPath10_0_)" transform="translate(1398,33)" >
<rect x="0" y="0" width="113" height="82" rx="20" ry="20" />
<text id="7C1F4576-435F8CAF2A2B" x="21" y="14" fill="rgb(0,0,255)" font-weight="bold"  fill-opacity="1.0" font-size="10" stroke="none">
metodo_pagos
</text>
<text x="16" y="32" fill="rgb(255,0,0)" fill-opacity="1.0" font-size="10" stroke="none">
*
</text>
<text x="2" y="32" fill="rgb(0,0,255)" fill-opacity="1.0" font-size="10" stroke="none">
P
</text>
<text x="26" y="32" fill="rgb(0,0,0)" fill-opacity="1.0" font-size="10" stroke="none">
id_metodo_pago
</text>
<text x="16" y="46" fill="rgb(255,0,0)" fill-opacity="1.0" font-size="10" stroke="none">
*
</text>
<text x="26" y="46" fill="rgb(0,0,0)" fill-opacity="1.0" font-size="10" stroke="none">
payment_method
</text>
<text x="16" y="60" fill="rgb(255,0,0)" fill-opacity="1.0" font-size="10" stroke="none">
*
</text>
<text x="26" y="60" fill="rgb(0,0,0)" fill-opacity="1.0" font-size="10" stroke="none">
created_at
</text>
<text x="16" y="74" fill="rgb(255,0,0)" fill-opacity="1.0" font-size="10" stroke="none">
*
</text>
<text x="26" y="74" fill="rgb(0,0,0)" fill-opacity="1.0" font-size="10" stroke="none">
update_at
</text>
</g>
<g  fill="rgb(164,225,255)" stroke="rgb(0,0,255)" fill-opacity="1.0" stroke-opacity="1.0" clip-path="url(#clipPath1_0_)" transform="translate(278,941)" >
<rect x="0" y="0" width="104" height="81" rx="20" ry="20" />
<text id="EEBDCE0A-75B6CD8D36E8" x="26" y="14" fill="rgb(0,0,255)" font-weight="bold"  fill-opacity="1.0" font-size="10" stroke="none">
categorias
</text>
<text x="16" y="32" fill="rgb(255,0,0)" fill-opacity="1.0" font-size="10" stroke="none">
*
</text>
<text x="2" y="32" fill="rgb(0,0,255)" fill-opacity="1.0" font-size="10" stroke="none">
P
</text>
<text x="26" y="32" fill="rgb(0,0,0)" fill-opacity="1.0" font-size="10" stroke="none">
id_categoria
</text>
<text x="16" y="46" fill="rgb(255,0,0)" fill-opacity="1.0" font-size="10" stroke="none">
*
</text>
<text x="26" y="46" fill="rgb(0,0,0)" fill-opacity="1.0" font-size="10" stroke="none">
name
</text>
<text x="16" y="60" fill="rgb(255,0,0)" fill-opacity="1.0" font-size="10" stroke="none">
*
</text>
<text x="26" y="60" fill="rgb(0,0,0)" fill-opacity="1.0" font-size="10" stroke="none">
created_at
</text>
<text x="16" y="74" fill="rgb(255,0,0)" fill-opacity="1.0" font-size="10" stroke="none">
*
</text>
<text x="26" y="74" fill="rgb(0,0,0)" fill-opacity="1.0" font-size="10" stroke="none">
updated_at
</text>
</g>
<g  fill="rgb(164,225,255)" stroke="rgb(0,0,255)" fill-opacity="1.0" stroke-opacity="1.0" clip-path="url(#clipPath3_0_)" transform="translate(355,43)" >
<rect x="0" y="0" width="119" height="81" rx="20" ry="20" />
<text id="252FA6F1-75D531E3E20E" x="23" y="14" fill="rgb(0,0,255)" font-weight="bold"  fill-opacity="1.0" font-size="10" stroke="none">
departamentos
</text>
<text x="16" y="32" fill="rgb(255,0,0)" fill-opacity="1.0" font-size="10" stroke="none">
*
</text>
<text x="2" y="32" fill="rgb(0,0,255)" fill-opacity="1.0" font-size="10" stroke="none">
P
</text>
<text x="26" y="32" fill="rgb(0,0,0)" fill-opacity="1.0" font-size="10" stroke="none">
id_departamento
</text>
<text x="16" y="46" fill="rgb(255,0,0)" fill-opacity="1.0" font-size="10" stroke="none">
*
</text>
<text x="26" y="46" fill="rgb(0,0,0)" fill-opacity="1.0" font-size="10" stroke="none">
name
</text>
<text x="16" y="60" fill="rgb(255,0,0)" fill-opacity="1.0" font-size="10" stroke="none">
*
</text>
<text x="26" y="60" fill="rgb(0,0,0)" fill-opacity="1.0" font-size="10" stroke="none">
created_at
</text>
<text x="16" y="74" fill="rgb(255,0,0)" fill-opacity="1.0" font-size="10" stroke="none">
*
</text>
<text x="26" y="74" fill="rgb(0,0,0)" fill-opacity="1.0" font-size="10" stroke="none">
updated_at
</text>
</g>
<g  fill="rgb(164,225,255)" stroke="rgb(0,0,255)" fill-opacity="1.0" stroke-opacity="1.0" clip-path="url(#clipPath7_0_)" transform="translate(114,734)" >
<rect x="0" y="0" width="104" height="91" rx="20" ry="20" />
<text id="5036480E-DE0B6BE1F38E" x="28" y="14" fill="rgb(0,0,255)" font-weight="bold"  fill-opacity="1.0" font-size="10" stroke="none">
imagenes
</text>
<text x="16" y="32" fill="rgb(255,0,0)" fill-opacity="1.0" font-size="10" stroke="none">
*
</text>
<text x="2" y="32" fill="rgb(0,0,255)" fill-opacity="1.0" font-size="10" stroke="none">
P
</text>
<text x="26" y="32" fill="rgb(0,0,0)" fill-opacity="1.0" font-size="10" stroke="none">
id_imagen
</text>
<text x="16" y="46" fill="rgb(255,0,0)" fill-opacity="1.0" font-size="10" stroke="none">
*
</text>
<text x="26" y="46" fill="rgb(0,0,0)" fill-opacity="1.0" font-size="10" stroke="none">
image
</text>
<text x="16" y="60" fill="rgb(255,0,0)" fill-opacity="1.0" font-size="10" stroke="none">
*
</text>
<text x="26" y="60" fill="rgb(0,0,0)" fill-opacity="1.0" font-size="10" stroke="none">
created_at
</text>
<text x="16" y="74" fill="rgb(255,0,0)" fill-opacity="1.0" font-size="10" stroke="none">
*
</text>
<text x="26" y="74" fill="rgb(0,0,0)" fill-opacity="1.0" font-size="10" stroke="none">
updated_at
</text>
</g>
<g  fill="rgb(164,225,255)" stroke="rgb(0,0,255)" fill-opacity="1.0" stroke-opacity="1.0" clip-path="url(#clipPath15_0_)" transform="translate(637,298)" >
<rect x="0" y="0" width="125" height="103" rx="20" ry="20" />
<text id="121F8C33-ECD2F250038F" x="48" y="14" fill="rgb(0,0,255)" font-weight="bold"  fill-opacity="1.0" font-size="10" stroke="none">
sedes
</text>
<text x="16" y="32" fill="rgb(255,0,0)" fill-opacity="1.0" font-size="10" stroke="none">
*
</text>
<text x="2" y="32" fill="rgb(0,0,255)" fill-opacity="1.0" font-size="10" stroke="none">
P
</text>
<text x="26" y="32" fill="rgb(0,0,0)" fill-opacity="1.0" font-size="10" stroke="none">
id_sede
</text>
<text x="16" y="46" fill="rgb(255,0,0)" fill-opacity="1.0" font-size="10" stroke="none">
*
</text>
<text x="26" y="46" fill="rgb(0,0,0)" fill-opacity="1.0" font-size="10" stroke="none">
name
</text>
<text x="16" y="60" fill="rgb(255,0,0)" fill-opacity="1.0" font-size="10" stroke="none">
*
</text>
<text x="26" y="60" fill="rgb(0,0,0)" fill-opacity="1.0" font-size="10" stroke="none">
created_at
</text>
<text x="16" y="74" fill="rgb(255,0,0)" fill-opacity="1.0" font-size="10" stroke="none">
*
</text>
<text x="26" y="74" fill="rgb(0,0,0)" fill-opacity="1.0" font-size="10" stroke="none">
updated_at
</text>
</g>
<g  fill="rgb(164,225,255)" stroke="rgb(0,0,255)" fill-opacity="1.0" stroke-opacity="1.0" clip-path="url(#clipPath16_0_)" transform="translate(636,25)" >
<rect x="0" y="0" width="111" height="183" rx="20" ry="20" />
<text id="69CE45B0-DC335B3937CD" x="24" y="14" fill="rgb(0,0,255)" font-weight="bold"  fill-opacity="1.0" font-size="10" stroke="none">
trabajadores
</text>
<text x="16" y="32" fill="rgb(255,0,0)" fill-opacity="1.0" font-size="10" stroke="none">
*
</text>
<text x="2" y="32" fill="rgb(0,0,255)" fill-opacity="1.0" font-size="10" stroke="none">
P
</text>
<text x="26" y="32" fill="rgb(0,0,0)" fill-opacity="1.0" font-size="10" stroke="none">
id_trabajador
</text>
<text x="16" y="46" fill="rgb(255,0,0)" fill-opacity="1.0" font-size="10" stroke="none">
*
</text>
<text x="26" y="46" fill="rgb(0,0,0)" fill-opacity="1.0" font-size="10" stroke="none">
national_document
</text>
<text x="16" y="60" fill="rgb(255,0,0)" fill-opacity="1.0" font-size="10" stroke="none">
*
</text>
<text x="26" y="60" fill="rgb(0,0,0)" fill-opacity="1.0" font-size="10" stroke="none">
name
</text>
<text x="16" y="74" fill="rgb(255,0,0)" fill-opacity="1.0" font-size="10" stroke="none">
*
</text>
<text x="26" y="74" fill="rgb(0,0,0)" fill-opacity="1.0" font-size="10" stroke="none">
lastname
</text>
<text x="16" y="88" fill="rgb(255,0,0)" fill-opacity="1.0" font-size="10" stroke="none">
*
</text>
<text x="26" y="88" fill="rgb(0,0,0)" fill-opacity="1.0" font-size="10" stroke="none">
job
</text>
<text x="16" y="102" fill="rgb(255,0,0)" fill-opacity="1.0" font-size="10" stroke="none">
*
</text>
<text x="26" y="102" fill="rgb(0,0,0)" fill-opacity="1.0" font-size="10" stroke="none">
phone
</text>
<text x="16" y="116" fill="rgb(255,0,0)" fill-opacity="1.0" font-size="10" stroke="none">
*
</text>
<text x="26" y="116" fill="rgb(0,0,0)" fill-opacity="1.0" font-size="10" stroke="none">
email
</text>
<text x="16" y="130" fill="rgb(255,0,0)" fill-opacity="1.0" font-size="10" stroke="none">
*
</text>
<text x="26" y="130" fill="rgb(0,0,0)" fill-opacity="1.0" font-size="10" stroke="none">
active
</text>
<text x="16" y="144" fill="rgb(255,0,0)" fill-opacity="1.0" font-size="10" stroke="none">
*
</text>
<text x="26" y="144" fill="rgb(0,0,0)" fill-opacity="1.0" font-size="10" stroke="none">
created_at
</text>
<text x="16" y="158" fill="rgb(255,0,0)" fill-opacity="1.0" font-size="10" stroke="none">
*
</text>
<text x="26" y="158" fill="rgb(0,0,0)" fill-opacity="1.0" font-size="10" stroke="none">
updated_at
</text>
</g>
<g  fill="rgb(164,225,255)" stroke="rgb(0,0,255)" fill-opacity="1.0" stroke-opacity="1.0" clip-path="url(#clipPath8_0_)" transform="translate(286,309)" >
<rect x="0" y="0" width="128" height="82" rx="20" ry="20" />
<text id="EDFB772D-3184F8B1F5EE" x="39" y="14" fill="rgb(0,0,255)" font-weight="bold"  fill-opacity="1.0" font-size="10" stroke="none">
inventario
</text>
<text x="16" y="32" fill="rgb(255,0,0)" fill-opacity="1.0" font-size="10" stroke="none">
*
</text>
<text x="2" y="32" fill="rgb(0,0,255)" fill-opacity="1.0" font-size="10" stroke="none">
P
</text>
<text x="26" y="32" fill="rgb(0,0,0)" fill-opacity="1.0" font-size="10" stroke="none">
id_inventario
</text>
<text x="16" y="46" fill="rgb(255,0,0)" fill-opacity="1.0" font-size="10" stroke="none">
*
</text>
<text x="26" y="46" fill="rgb(0,0,0)" fill-opacity="1.0" font-size="10" stroke="none">
quantity
</text>
<text x="16" y="60" fill="rgb(255,0,0)" fill-opacity="1.0" font-size="10" stroke="none">
*
</text>
<text x="26" y="60" fill="rgb(0,0,0)" fill-opacity="1.0" font-size="10" stroke="none">
created_at
</text>
<text x="16" y="74" fill="rgb(255,0,0)" fill-opacity="1.0" font-size="10" stroke="none">
*
</text>
<text x="26" y="74" fill="rgb(0,0,0)" fill-opacity="1.0" font-size="10" stroke="none">
updated_at
</text>
</g>
<g  fill="rgb(164,225,255)" stroke="rgb(0,0,255)" fill-opacity="1.0" stroke-opacity="1.0" clip-path="url(#clipPath11_0_)" transform="translate(1155,297)" >
<rect x="0" y="0" width="118" height="95" rx="20" ry="20" />
<text id="273E8389-5CFFDBACA055" x="24" y="14" fill="rgb(0,0,255)" font-weight="bold"  fill-opacity="1.0" font-size="10" stroke="none">
orden_compra
</text>
<text x="16" y="32" fill="rgb(255,0,0)" fill-opacity="1.0" font-size="10" stroke="none">
*
</text>
<text x="2" y="32" fill="rgb(0,0,255)" fill-opacity="1.0" font-size="10" stroke="none">
P
</text>
<text x="26" y="32" fill="rgb(0,0,0)" fill-opacity="1.0" font-size="10" stroke="none">
id_orden_compra
</text>
<text x="16" y="46" fill="rgb(255,0,0)" fill-opacity="1.0" font-size="10" stroke="none">
*
</text>
<text x="26" y="46" fill="rgb(0,0,0)" fill-opacity="1.0" font-size="10" stroke="none">
created_at
</text>
<text x="16" y="60" fill="rgb(255,0,0)" fill-opacity="1.0" font-size="10" stroke="none">
*
</text>
<text x="26" y="60" fill="rgb(0,0,0)" fill-opacity="1.0" font-size="10" stroke="none">
updated_at
</text>
</g>
<g  fill="rgb(164,225,255)" stroke="rgb(0,0,255)" fill-opacity="1.0" stroke-opacity="1.0" clip-path="url(#clipPath6_0_)" transform="translate(1386,291)" >
<rect x="0" y="0" width="133" height="141" rx="20" ry="20" />
<text id="7B7968B0-1717A3E31D77" x="50" y="14" fill="rgb(0,0,255)" font-weight="bold"  fill-opacity="1.0" font-size="10" stroke="none">
envios
</text>
<text x="16" y="32" fill="rgb(255,0,0)" fill-opacity="1.0" font-size="10" stroke="none">
*
</text>
<text x="2" y="32" fill="rgb(0,0,255)" fill-opacity="1.0" font-size="10" stroke="none">
P
</text>
<text x="26" y="32" fill="rgb(0,0,0)" fill-opacity="1.0" font-size="10" stroke="none">
id_envios
</text>
<text x="16" y="46" fill="rgb(255,0,0)" fill-opacity="1.0" font-size="10" stroke="none">
*
</text>
<text x="26" y="46" fill="rgb(0,0,0)" fill-opacity="1.0" font-size="10" stroke="none">
delivered_at
</text>
<text x="16" y="60" fill="rgb(255,0,0)" fill-opacity="1.0" font-size="10" stroke="none">
*
</text>
<text x="26" y="60" fill="rgb(0,0,0)" fill-opacity="1.0" font-size="10" stroke="none">
address
</text>
<text x="16" y="74" fill="rgb(255,0,0)" fill-opacity="1.0" font-size="10" stroke="none">
*
</text>
<text x="26" y="74" fill="rgb(0,0,0)" fill-opacity="1.0" font-size="10" stroke="none">
company
</text>
<text x="16" y="88" fill="rgb(255,0,0)" fill-opacity="1.0" font-size="10" stroke="none">
*
</text>
<text x="26" y="88" fill="rgb(0,0,0)" fill-opacity="1.0" font-size="10" stroke="none">
number_company_guide
</text>
<text x="16" y="102" fill="rgb(255,0,0)" fill-opacity="1.0" font-size="10" stroke="none">
*
</text>
<text x="26" y="102" fill="rgb(0,0,0)" fill-opacity="1.0" font-size="10" stroke="none">
status
</text>
<text x="16" y="116" fill="rgb(255,0,0)" fill-opacity="1.0" font-size="10" stroke="none">
*
</text>
<text x="26" y="116" fill="rgb(0,0,0)" fill-opacity="1.0" font-size="10" stroke="none">
created_at
</text>
<text x="16" y="130" fill="rgb(255,0,0)" fill-opacity="1.0" font-size="10" stroke="none">
*
</text>
<text x="26" y="130" fill="rgb(0,0,0)" fill-opacity="1.0" font-size="10" stroke="none">
updated_at
</text>
</g>
<g  fill="rgb(164,225,255)" stroke="rgb(0,0,255)" fill-opacity="1.0" stroke-opacity="1.0" clip-path="url(#clipPath4_0_)" transform="translate(565,881)" >
<rect x="0" y="0" width="133" height="116" rx="20" ry="20" />
<text id="4DFFF43E-D928510B7FFA" x="33" y="14" fill="rgb(0,0,255)" font-weight="bold"  fill-opacity="1.0" font-size="10" stroke="none">
devoluciones
</text>
<text x="16" y="32" fill="rgb(255,0,0)" fill-opacity="1.0" font-size="10" stroke="none">
*
</text>
<text x="2" y="32" fill="rgb(0,0,255)" fill-opacity="1.0" font-size="10" stroke="none">
P
</text>
<text x="26" y="32" fill="rgb(0,0,0)" fill-opacity="1.0" font-size="10" stroke="none">
id_devolucion
</text>
<text x="16" y="46" fill="rgb(255,0,0)" fill-opacity="1.0" font-size="10" stroke="none">
*
</text>
<text x="26" y="46" fill="rgb(0,0,0)" fill-opacity="1.0" font-size="10" stroke="none">
description
</text>
<text x="16" y="60" fill="rgb(255,0,0)" fill-opacity="1.0" font-size="10" stroke="none">
*
</text>
<text x="26" y="60" fill="rgb(0,0,0)" fill-opacity="1.0" font-size="10" stroke="none">
status
</text>
<text x="16" y="74" fill="rgb(255,0,0)" fill-opacity="1.0" font-size="10" stroke="none">
*
</text>
<text x="26" y="74" fill="rgb(0,0,0)" fill-opacity="1.0" font-size="10" stroke="none">
requested_at
</text>
<text x="16" y="88" fill="rgb(255,0,0)" fill-opacity="1.0" font-size="10" stroke="none">
*
</text>
<text x="26" y="88" fill="rgb(0,0,0)" fill-opacity="1.0" font-size="10" stroke="none">
created_at
</text>
<text x="16" y="102" fill="rgb(255,0,0)" fill-opacity="1.0" font-size="10" stroke="none">
*
</text>
<text x="26" y="102" fill="rgb(0,0,0)" fill-opacity="1.0" font-size="10" stroke="none">
updated_at
</text>
</g>
<g  fill="rgb(164,225,255)" stroke="rgb(0,0,255)" fill-opacity="1.0" stroke-opacity="1.0" clip-path="url(#clipPath14_0_)" transform="translate(277,719)" >
<rect x="0" y="0" width="122" height="151" rx="20" ry="20" />
<text id="89D987AB-64318A4208D8" x="37" y="14" fill="rgb(0,0,255)" font-weight="bold"  fill-opacity="1.0" font-size="10" stroke="none">
productos
</text>
<text x="16" y="32" fill="rgb(255,0,0)" fill-opacity="1.0" font-size="10" stroke="none">
*
</text>
<text x="2" y="32" fill="rgb(0,0,255)" fill-opacity="1.0" font-size="10" stroke="none">
P
</text>
<text x="26" y="32" fill="rgb(0,0,0)" fill-opacity="1.0" font-size="10" stroke="none">
id_producto
</text>
<text x="16" y="46" fill="rgb(255,0,0)" fill-opacity="1.0" font-size="10" stroke="none">
*
</text>
<text x="26" y="46" fill="rgb(0,0,0)" fill-opacity="1.0" font-size="10" stroke="none">
sku
</text>
<text x="16" y="60" fill="rgb(255,0,0)" fill-opacity="1.0" font-size="10" stroke="none">
*
</text>
<text x="26" y="60" fill="rgb(0,0,0)" fill-opacity="1.0" font-size="10" stroke="none">
name
</text>
<text x="16" y="74" fill="rgb(255,0,0)" fill-opacity="1.0" font-size="10" stroke="none">
*
</text>
<text x="26" y="74" fill="rgb(0,0,0)" fill-opacity="1.0" font-size="10" stroke="none">
description
</text>
<text x="16" y="88" fill="rgb(255,0,0)" fill-opacity="1.0" font-size="10" stroke="none">
*
</text>
<text x="26" y="88" fill="rgb(0,0,0)" fill-opacity="1.0" font-size="10" stroke="none">
price
</text>
<text x="16" y="102" fill="rgb(255,0,0)" fill-opacity="1.0" font-size="10" stroke="none">
*
</text>
<text x="26" y="102" fill="rgb(0,0,0)" fill-opacity="1.0" font-size="10" stroke="none">
slug
</text>
<text x="16" y="116" fill="rgb(255,0,0)" fill-opacity="1.0" font-size="10" stroke="none">
*
</text>
<text x="26" y="116" fill="rgb(0,0,0)" fill-opacity="1.0" font-size="10" stroke="none">
active
</text>
<text x="16" y="130" fill="rgb(255,0,0)" fill-opacity="1.0" font-size="10" stroke="none">
*
</text>
<text x="26" y="130" fill="rgb(0,0,0)" fill-opacity="1.0" font-size="10" stroke="none">
created_at
</text>
<text x="16" y="144" fill="rgb(255,0,0)" fill-opacity="1.0" font-size="10" stroke="none">
*
</text>
<text x="26" y="144" fill="rgb(0,0,0)" fill-opacity="1.0" font-size="10" stroke="none">
updated_at
</text>
</g>
<g  fill="rgb(164,225,255)" stroke="rgb(0,0,255)" fill-opacity="1.0" stroke-opacity="1.0" clip-path="url(#clipPath13_0_)" transform="translate(1388,494)" >
<rect x="0" y="0" width="133" height="97" rx="20" ry="20" />
<text id="F1476507-257775F5E00B" x="52" y="14" fill="rgb(0,0,255)" font-weight="bold"  fill-opacity="1.0" font-size="10" stroke="none">
pagos
</text>
<text x="16" y="32" fill="rgb(255,0,0)" fill-opacity="1.0" font-size="10" stroke="none">
*
</text>
<text x="2" y="32" fill="rgb(0,0,255)" fill-opacity="1.0" font-size="10" stroke="none">
P
</text>
<text x="26" y="32" fill="rgb(0,0,0)" fill-opacity="1.0" font-size="10" stroke="none">
id_pago
</text>
<text x="16" y="46" fill="rgb(255,0,0)" fill-opacity="1.0" font-size="10" stroke="none">
*
</text>
<text x="26" y="46" fill="rgb(0,0,0)" fill-opacity="1.0" font-size="10" stroke="none">
payment_method
</text>
<text x="16" y="60" fill="rgb(255,0,0)" fill-opacity="1.0" font-size="10" stroke="none">
*
</text>
<text x="26" y="60" fill="rgb(0,0,0)" fill-opacity="1.0" font-size="10" stroke="none">
status
</text>
<text x="16" y="74" fill="rgb(255,0,0)" fill-opacity="1.0" font-size="10" stroke="none">
*
</text>
<text x="26" y="74" fill="rgb(0,0,0)" fill-opacity="1.0" font-size="10" stroke="none">
created_at
</text>
<text x="16" y="88" fill="rgb(255,0,0)" fill-opacity="1.0" font-size="10" stroke="none">
*
</text>
<text x="26" y="88" fill="rgb(0,0,0)" fill-opacity="1.0" font-size="10" stroke="none">
updated_at
</text>
</g>
<g  fill="rgb(164,225,255)" stroke="rgb(0,0,255)" fill-opacity="1.0" stroke-opacity="1.0" clip-path="url(#clipPath17_0_)" transform="translate(843,481)" >
<rect x="0" y="0" width="133" height="147" rx="20" ry="20" />
<text id="F18BB704-D235354CD5FF" x="21" y="14" fill="rgb(0,0,255)" font-weight="bold"  fill-opacity="1.0" font-size="10" stroke="none">
traslados_internos
</text>
<text x="16" y="32" fill="rgb(255,0,0)" fill-opacity="1.0" font-size="10" stroke="none">
*
</text>
<text x="2" y="32" fill="rgb(0,0,255)" fill-opacity="1.0" font-size="10" stroke="none">
P
</text>
<text x="26" y="32" fill="rgb(0,0,0)" fill-opacity="1.0" font-size="10" stroke="none">
id_traslado_interno
</text>
<text x="16" y="46" fill="rgb(255,0,0)" fill-opacity="1.0" font-size="10" stroke="none">
*
</text>
<text x="26" y="46" fill="rgb(0,0,0)" fill-opacity="1.0" font-size="10" stroke="none">
requested_at
</text>
<text x="16" y="60" fill="rgb(255,0,0)" fill-opacity="1.0" font-size="10" stroke="none">
*
</text>
<text x="26" y="60" fill="rgb(0,0,0)" fill-opacity="1.0" font-size="10" stroke="none">
location_origin_id
</text>
<text x="16" y="74" fill="rgb(255,0,0)" fill-opacity="1.0" font-size="10" stroke="none">
*
</text>
<text x="26" y="74" fill="rgb(0,0,0)" fill-opacity="1.0" font-size="10" stroke="none">
location_dest_id
</text>
<text x="16" y="88" fill="rgb(255,0,0)" fill-opacity="1.0" font-size="10" stroke="none">
*
</text>
<text x="26" y="88" fill="rgb(0,0,0)" fill-opacity="1.0" font-size="10" stroke="none">
status
</text>
<text x="16" y="102" fill="rgb(255,0,0)" fill-opacity="1.0" font-size="10" stroke="none">
*
</text>
<text x="26" y="102" fill="rgb(0,0,0)" fill-opacity="1.0" font-size="10" stroke="none">
estimate_arrive_date
</text>
<text x="16" y="116" fill="rgb(255,0,0)" fill-opacity="1.0" font-size="10" stroke="none">
*
</text>
<text x="26" y="116" fill="rgb(0,0,0)" fill-opacity="1.0" font-size="10" stroke="none">
created_at
</text>
<text x="16" y="130" fill="rgb(255,0,0)" fill-opacity="1.0" font-size="10" stroke="none">
*
</text>
<text x="26" y="130" fill="rgb(0,0,0)" fill-opacity="1.0" font-size="10" stroke="none">
updated_at
</text>
</g>
<g  fill="rgb(164,225,255)" stroke="rgb(0,0,255)" fill-opacity="1.0" stroke-opacity="1.0" clip-path="url(#clipPath12_0_)" transform="translate(1134,732)" >
<rect x="0" y="0" width="140" height="88" rx="20" ry="20" />
<text id="00090AE4-1357DA8BC532" x="34" y="14" fill="rgb(0,0,255)" font-weight="bold"  fill-opacity="1.0" font-size="10" stroke="none">
orden_detalles
</text>
<text x="16" y="32" fill="rgb(255,0,0)" fill-opacity="1.0" font-size="10" stroke="none">
*
</text>
<text x="2" y="32" fill="rgb(0,0,255)" fill-opacity="1.0" font-size="10" stroke="none">
P
</text>
<text x="26" y="32" fill="rgb(0,0,0)" fill-opacity="1.0" font-size="10" stroke="none">
id_orden_detalles
</text>
<text x="16" y="46" fill="rgb(255,0,0)" fill-opacity="1.0" font-size="10" stroke="none">
*
</text>
<text x="26" y="46" fill="rgb(0,0,0)" fill-opacity="1.0" font-size="10" stroke="none">
quantity
</text>
<text x="16" y="60" fill="rgb(255,0,0)" fill-opacity="1.0" font-size="10" stroke="none">
*
</text>
<text x="26" y="60" fill="rgb(0,0,0)" fill-opacity="1.0" font-size="10" stroke="none">
price
</text>
<text x="16" y="74" fill="rgb(255,0,0)" fill-opacity="1.0" font-size="10" stroke="none">
*
</text>
<text x="26" y="74" fill="rgb(0,0,0)" fill-opacity="1.0" font-size="10" stroke="none">
created_at
</text>
<text x="16" y="88" fill="rgb(255,0,0)" fill-opacity="1.0" font-size="10" stroke="none">
*
</text>
<text x="26" y="88" fill="rgb(0,0,0)" fill-opacity="1.0" font-size="10" stroke="none">
updated_at
</text>
</g>
<g  fill="rgb(164,225,255)" stroke="rgb(0,0,255)" fill-opacity="1.0" stroke-opacity="1.0" clip-path="url(#clipPath9_0_)" transform="translate(477,504)" >
<rect x="0" y="0" width="149" height="66" rx="20" ry="20" />
<text id="F6A4ECB2-D82E6AC2BE68" x="29" y="14" fill="rgb(0,0,255)" font-weight="bold"  fill-opacity="1.0" font-size="10" stroke="none">
lista_prod_tras_int
</text>
<text x="16" y="32" fill="rgb(255,0,0)" fill-opacity="1.0" font-size="10" stroke="none">
*
</text>
<text x="2" y="32" fill="rgb(0,0,255)" fill-opacity="1.0" font-size="10" stroke="none">
P
</text>
<text x="26" y="32" fill="rgb(0,0,0)" fill-opacity="1.0" font-size="10" stroke="none">
id_lista_prod_tras_int
</text>
<text x="16" y="46" fill="rgb(255,0,0)" fill-opacity="1.0" font-size="10" stroke="none">
*
</text>
<text x="26" y="46" fill="rgb(0,0,0)" fill-opacity="1.0" font-size="10" stroke="none">
quantity
</text>
<text x="16" y="60" fill="rgb(255,0,0)" fill-opacity="1.0" font-size="10" stroke="none">
*
</text>
<text x="26" y="60" fill="rgb(0,0,0)" fill-opacity="1.0" font-size="10" stroke="none">
updated_at
</text>
</g>

</svg>